<svg xmlns="http://www.w3.org/2000/svg" width="600" height="713.107" viewBox="0 0 600 713.107"><path d="M220.47 39.39c.957 0 1.914-.137 3.009-.548.957-.41 1.778-.82 2.598-1.504.821-.684 1.505-1.504 1.915-2.462.547-.82.821-1.778.821-2.872 0-.684-.137-1.231-.274-1.915 0-.547-.274-1.093-.547-1.641-.273-.547-.684-.958-1.23-1.367-.548-.274-1.095-.548-1.916-.548-1.23 0-2.325.274-3.282.82a8.964 8.964 0 0 0-2.462 2.052c-.547.958-1.094 1.915-1.504 2.873-.274 1.093-.548 2.188-.548 3.145 0 1.368.274 2.462.548 3.009.41.684 1.367.957 2.872.957zm-33.098 0c1.094 0 2.052-.137 3.01-.548.956-.41 1.913-.82 2.734-1.504.82-.684 1.368-1.504 1.915-2.462.41-.82.684-1.778.684-2.872 0-.684 0-1.231-.137-1.915-.136-.547-.273-1.093-.684-1.641-.273-.547-.684-.958-1.094-1.367-.547-.274-1.23-.548-2.051-.548a6.355 6.355 0 0 0-3.146.82 8.964 8.964 0 0 0-2.461 2.052c-.685.958-1.232 1.915-1.506 2.873a8.98 8.98 0 0 0-.546 3.145c0 1.368.137 2.462.546 3.009.411.684 1.232.957 2.736.957zM0 0v354.503C0 532.027 126.51 680.01 294.324 713.107c2.325-.41 4.514-.957 6.839-1.504C471.986 675.633 600 523.821 600 342.33V0H0zm211.58 32.961c.547-2.188 1.367-4.102 2.462-5.744 1.094-1.778 2.598-3.146 4.377-4.24 1.778-.957 3.965-1.504 6.564-1.504 1.367 0 2.736.273 3.83.82 1.094.548 2.051 1.231 2.735 2.052.82.82 1.368 1.915 1.778 3.009.274 1.23.547 2.462.547 3.693 0 2.051-.547 3.966-1.368 5.88-.957 1.915-2.188 3.557-3.829 4.924a13.45 13.45 0 0 1-5.334 3.283c-2.052.684-4.103.957-6.155.547 0 1.094.41 2.052 1.232 2.735.683.684 1.504 1.23 2.598 1.505.958.41 2.051.683 3.146.683 1.094.137 2.051.137 3.009.137.82 0 1.777 0 2.462-.137.82-.137 1.64-.41 2.461-.547.684-.273 1.505-.41 2.325-.546.82-.137 1.641-.274 2.599-.274.41 0 .683 0 1.094.137.273 0 .684 0 .958.273.41.137.546.274.82.547.136.273.273.684.273 1.094 0 .82-.273 1.368-.82 1.915-.547.41-1.23.957-2.051 1.231-.958.41-1.779.684-2.873.82-.957.138-2.052.274-3.008.41-.958.137-1.778.137-2.599.137s-1.505.137-1.778.137c-2.599 0-4.787-.41-6.838-1.23-2.052-.821-3.693-1.915-5.06-3.42-1.506-1.367-2.463-3.145-3.284-5.197-.684-2.051-1.093-4.24-1.093-6.838 0-2.052.273-4.24.82-6.292zM184.91 16.96l.41-.41c.137-.275.274-.41.274-.548.41-.547.82-1.23 1.368-2.051.547-.821 1.094-1.505 1.641-2.188.547-.685 1.094-1.369 1.641-1.915.41-.547.958-.82 1.505-1.095.41-.137.82-.137 1.094.137.41.274.684.82.82 1.778l-6.428 9.437c-.41.547-.957.82-1.367.684-.548-.137-.82-.274-1.095-.684-.273-.41-.41-.82-.41-1.367 0-.685.137-1.231.547-1.778zM178.62 32.96c.41-2.188 1.23-4.102 2.461-5.744 1.095-1.778 2.463-3.146 4.377-4.24 1.778-.957 3.967-1.504 6.429-1.504 1.504 0 2.735.273 3.829.82 1.23.548 2.051 1.231 2.872 2.052.684.82 1.231 1.915 1.641 3.009.41 1.23.547 2.462.547 3.693 0 2.051-.41 3.966-1.367 5.88s-2.188 3.557-3.693 4.924c-1.642 1.505-3.42 2.599-5.334 3.283-2.052.684-4.103.957-6.154.547 0 1.094.41 2.052 1.093 2.735.685.684 1.642 1.23 2.599 1.505 1.094.41 2.188.683 3.283.683 1.093.137 2.05.137 2.871.137.958 0 1.779 0 2.6-.137s1.64-.41 2.324-.547c.821-.273 1.642-.41 2.462-.546.821-.137 1.642-.274 2.6-.274.272 0 .683 0 .956.137.41 0 .684 0 1.094.273.274.137.548.274.684.547.274.273.41.684.41 1.094 0 .82-.273 1.368-.957 1.915-.547.41-1.231.957-2.052 1.231-.82.41-1.778.684-2.735.82-1.094.138-2.051.274-3.009.41s-1.915.137-2.735.137-1.368.137-1.778.137c-2.462 0-4.787-.41-6.839-1.23-1.914-.821-3.692-1.915-5.06-3.42-1.368-1.367-2.462-3.145-3.146-5.197-.683-2.051-1.094-4.24-1.094-6.838 0-2.052.274-4.24.82-6.292zm-28.858-.273c.684-1.778 1.778-3.42 3.01-4.924 1.093-1.504 2.598-2.735 4.102-3.693 1.641-.957 3.282-1.504 5.06-1.504.958 0 1.915.274 2.736.547.957.274 1.778.82 2.462 1.368.82.547 1.367 1.23 1.778 2.051.546.82.683 1.778.683 2.872-.683 0-1.368-.137-1.915-.273-.546-.136-1.094-.273-1.64-.547-.548-.274-1.095-.41-1.642-.547-.547-.137-1.094-.274-1.778-.274-1.641 0-2.872.41-3.966 1.232-.957.82-1.778 1.777-2.326 3.008-.546 1.231-.956 2.599-1.23 3.966-.274 1.368-.274 2.736-.274 3.967v2.871c0 .548.137 1.095.137 1.642v1.23c.547.958.958 1.642 1.367 2.189.411.41.821.82 1.232 1.094.546.274 1.094.41 1.64.548h1.916c.957 0 1.915-.137 2.735-.411.684-.274 1.505-.684 2.051-1.094.684-.547 1.369-.958 1.915-1.505.684-.546 1.232-.957 1.915-1.504.684-.41 1.368-.82 2.051-1.094.82-.274 1.778-.41 2.736-.41 0 1.914-.41 3.555-1.095 5.06-.683 1.504-1.64 2.872-2.871 3.83-1.231 1.094-2.736 1.914-4.377 2.461-1.641.684-3.556.957-5.47.957-1.915 0-3.557-.683-5.061-1.914-1.368-1.23-2.736-2.872-3.692-4.65-1.095-1.915-1.915-3.83-2.463-5.881-.547-2.052-.82-3.83-.82-5.471s.41-3.282 1.094-5.197zm-30.09-8.617c0-.41.138-.683.275-1.093.136-.274.41-.548.546-.685.274-.273.685-.273 1.232-.273h.683c.684 1.094 1.368 2.325 1.915 3.966.547 1.641 1.095 3.282 1.641 5.06.41 1.779.958 3.557 1.642 5.472.546 1.778 1.367 3.419 2.324 4.923.82 1.504 2.052 2.599 3.42 3.556 1.368.82 3.146 1.23 5.197 1.094.82 0 1.504-.547 1.778-1.505.274-.957.41-2.188.41-3.829 0-1.504 0-3.146-.136-5.06a34.69 34.69 0 0 1 0-5.334c.137-1.641.41-3.146.957-4.377.41-1.231 1.23-2.052 2.462-2.598.547 1.094.957 2.735 1.367 4.923.274 2.189.548 4.65.684 7.523.137 2.872.274 6.017.274 9.3 0 3.282-.137 6.702-.274 9.984-.136 3.282-.41 6.427-.684 9.437a96.462 96.462 0 0 1-1.094 8.069c-.41 2.188-.82 4.103-1.368 5.334-.546 1.368-1.094 1.915-1.64 1.778-.821-.82-1.505-1.915-1.916-3.146-.546-1.23-.82-2.598-.957-4.24-.273-1.504-.273-3.146-.273-4.787 0-1.778.137-3.555.273-5.197 0-1.777.137-3.42.274-5.06.137-1.778.273-3.283.273-4.65-1.505.137-2.872 0-4.376-.684a15.575 15.575 0 0 1-4.377-2.461c-1.367-1.232-2.735-2.599-3.966-4.24-1.368-1.642-2.462-3.556-3.419-5.608-.957-2.188-1.778-4.377-2.326-6.838-.546-2.462-.82-4.924-.82-7.66v-1.094zM82.745 16.96c0-.82.274-1.368.822-1.505a3.789 3.789 0 0 1 1.777-.41c.137 0 .274 0 .684.137h.547c.137 1.23.274 2.735.41 4.377.137 1.777.274 3.555.41 5.607.138 1.915.275 3.966.548 6.154.273 2.188.547 4.24 1.094 6.291.41 2.052.957 3.967 1.504 5.745.685 1.778 1.368 3.42 2.326 4.787.273.273.41.546.547.82.273.137.41.274.546.41.137 0 .411.138.685.138h.82c1.642 0 3.146-.274 4.65-.822 1.504-.546 3.01-1.093 4.377-1.777 1.504-.684 3.01-1.368 4.513-1.915a13.302 13.302 0 0 1 4.65-.82h1.368c.547 0 1.094 0 1.641.136.41 0 .82.273 1.23.547.275.274.548.82.548 1.368 0 .684-.547 1.368-1.64 2.051-1.095.684-2.463 1.368-4.105 2.052a78.896 78.896 0 0 1-5.47 2.051c-1.915.684-3.83 1.232-5.608 1.778-1.778.411-3.282.82-4.65 1.095-1.504.41-2.324.546-2.735.546-1.504 0-2.735-.546-3.829-1.504-1.094-.957-2.052-2.189-2.872-3.83-.82-1.64-1.505-3.555-2.052-5.744a46.562 46.562 0 0 1-1.23-6.564c-.411-2.189-.684-4.514-.958-6.839a694.95 694.95 0 0 0-.41-6.154c0-2.052-.138-3.693-.138-5.198V16.96zm259.312 475.404c-1.367 0-2.598-.547-3.556-1.641a14.036 14.036 0 0 1-2.325-4.513c-.683-1.915-1.094-3.83-1.504-6.155-.274-2.188-.548-4.376-.684-6.564-.136-2.052-.273-4.104-.273-5.882v-5.607c0-.684.137-1.368.137-2.188v-2.189c0-.684.136-1.23.136-1.504a6.332 6.332 0 0 1 2.188-2.052c.82-.547 1.778-.957 2.599-1.23.274 2.734.684 5.744 1.367 8.889.685 3.01 1.505 6.155 2.326 9.3.82 3.146 1.504 6.292 2.188 9.301.684 3.145.957 6.017.957 8.616 0 2.325-1.23 3.419-3.556 3.419zm-11.078-52.518c0-1.369.274-2.6.82-3.557.547-1.094 1.505-1.504 3.01-1.504.957.41 1.778.958 2.462 1.915.683.957.957 1.777.82 2.462 0 .82-.683 1.367-1.64 1.641-1.095.273-2.873 0-5.472-.957zm8.07-124.049l-10.395 28.448c-13.676 37.474-25.028 70.162-34.329 98.062-2.461 7.385-4.786 14.498-6.838 21.2v241.12C124.322 668.522 6.838 522.59 6.838 354.504V90.677h280.648v347.664c2.462-6.702 4.65-13.13 6.838-19.421 5.335-15.181 10.121-28.858 14.36-41.167a418.643 418.643 0 0 1 3.283-9.847c2.052-6.155 4.104-11.9 5.881-17.233l4.924-14.771c3.009-9.027 5.334-16.412 6.976-21.883a63.858 63.858 0 0 0 1.777-5.88c.957-3.283 1.368-5.335 1.368-6.156 0-4.65-4.923-6.838-14.908-6.427h-9.574c-2.462 0-3.555-.958-3.555-2.736 0-2.325 3.008-3.419 9.163-3.419h10.395c5.607.684 9.846.957 12.445.957h9.848l20.104-.957c3.693 0 5.471.82 5.471 2.462s-1.915 2.598-5.745 2.735c-9.026.273-15.044 1.504-18.052 3.966-3.01 2.462-6.155 8.207-9.437 17.233zm44.175 174.79c-.273-3.01-.683-6.018-1.23-8.754-.137-1.231-.274-2.325-.548-3.693-.273-1.23-.546-2.325-.82-3.419-.41-1.094-.684-2.188-1.095-3.145-.272-.958-.683-1.778-1.23-2.326-.137-.273-.41-.547-.684-.957-.41-.273-.684-.684-1.094-1.094-.41-.274-.684-.547-.957-.82-.411-.274-.547-.411-.547-.411-1.505-.41-2.873-.137-3.967.82-1.23 1.095-2.188 2.462-3.009 4.104-.957 1.641-1.64 3.555-2.188 5.744-.547 2.188-.958 4.24-1.368 6.155-.273 1.914-.546 3.692-.683 5.197-.137 1.367-.274 2.325-.274 2.599-1.367.956-2.599 1.23-3.693.82-1.094-.41-2.188-1.231-3.146-2.462a23.153 23.153 0 0 1-2.735-4.513c-.684-1.915-1.504-3.83-2.188-5.881-.684-2.052-1.231-4.24-1.778-6.292-.548-2.051-.957-4.102-1.368-5.88 0-1.232.274-2.19.957-2.873.685-.547 1.778-.82 3.283-.82h.684c.137.82.41 1.778.547 2.872.274.957.547 2.05.957 3.282.41 1.095.82 2.188 1.505 3.009.547.957 1.23 1.778 2.051 2.325 0-1.778.41-3.556 1.368-5.197.82-1.641 1.778-3.146 3.145-4.377 1.231-1.367 2.599-2.461 4.104-3.419 1.504-.82 3.008-1.504 4.513-1.778h1.64c2.463 0 4.514.547 6.292 1.641 1.778 1.095 3.146 2.599 4.377 4.377 1.094 1.778 2.052 3.693 2.599 6.018.683 2.188 1.094 4.513 1.367 6.838.41 2.325.548 4.514.685 6.702 0 2.188.136 4.103.136 5.608h-5.608zm40.347-7.66c-.82 2.052-2.189 3.693-3.693 5.061a16.737 16.737 0 0 1-5.744 3.145c-2.189.821-4.513 1.095-7.112 1.095-2.325 0-4.514-.82-6.428-2.463a21.533 21.533 0 0 1-4.924-6.017c-1.367-2.325-2.462-4.787-3.145-7.523-.684-2.598-1.095-5.06-1.095-6.975 0-2.188.548-4.513 1.505-6.838.957-2.325 2.188-4.513 3.692-6.428 1.642-1.915 3.42-3.42 5.608-4.787 2.051-1.23 4.24-1.914 6.565-1.914 1.094 0 2.325.273 3.42.683 1.23.41 2.324.958 3.281 1.778.958.684 1.642 1.641 2.19 2.736.683 1.093.957 2.188.957 3.556-.958 0-1.778-.137-2.463-.274-.82-.274-1.504-.41-2.188-.684-.82-.273-1.504-.547-2.188-.82-.684-.137-1.368-.274-2.188-.274-2.188 0-3.83.547-5.198 1.504-1.23 1.095-2.325 2.462-3.008 3.967-.82 1.641-1.368 3.282-1.641 5.197a32.838 32.838 0 0 0-.411 5.06v1.505c.137.684.137 1.367.137 2.188 0 .82 0 1.64.137 2.325v1.368c.683 1.231 1.23 2.188 1.64 2.872.548.684 1.231 1.23 1.779 1.504.684.41 1.23.547 2.051.684h2.462c1.368 0 2.462-.137 3.556-.547.957-.41 1.915-.957 2.735-1.505.958-.546 1.778-1.093 2.462-1.777.82-.821 1.641-1.368 2.462-1.915.82-.684 1.778-1.094 2.735-1.504.958-.41 2.189-.548 3.42-.548 0 2.462-.41 4.65-1.368 6.565zm42.672 6.018c-.684.684-1.642 1.23-2.736 1.642-1.094.41-2.325.82-3.693 1.093-1.367.137-2.599.41-3.829.41-1.231.138-2.462.274-3.42.274h-2.46c-3.147 0-6.156-.41-8.754-1.504-2.599-1.095-4.787-2.462-6.565-4.377a19.663 19.663 0 0 1-4.104-6.702 26.36 26.36 0 0 1-1.504-8.889c0-2.735.41-5.471 1.095-8.207.683-2.735 1.64-5.334 3.145-7.522 1.504-2.187 3.282-3.966 5.608-5.334 2.325-1.367 5.197-2.05 8.48-2.05 1.914 0 3.556.41 5.06 1.093 1.367.684 2.598 1.505 3.556 2.735.957 1.095 1.778 2.325 2.188 3.83.547 1.504.82 3.146.82 4.787 0 2.598-.683 5.06-1.915 7.522-1.093 2.462-2.734 4.65-4.786 6.565-2.052 1.777-4.377 3.283-6.975 4.24-2.599.957-5.198 1.094-7.933.547 0 1.504.547 2.735 1.505 3.693.957.82 2.051 1.504 3.42 1.914 1.366.548 2.734.82 4.102.957 1.504.137 2.736.137 3.83.137 1.23 0 2.325 0 3.282-.274 1.094-.272 2.051-.41 3.146-.683.957-.273 2.05-.547 3.008-.684 1.094-.274 2.189-.274 3.42-.274h1.367c.41.137.958.137 1.368.411.41.137.683.41.957.82.274.41.411.821.411 1.368 0 .957-.41 1.778-1.094 2.462zm45.953 1.642h-5.607c-.274-3.01-.684-6.018-1.094-8.754-.137-1.231-.41-2.325-.684-3.693a13.922 13.922 0 0 0-.82-3.419c-.274-1.094-.548-2.188-.958-3.145-.41-.958-.82-1.778-1.231-2.326-.137-.273-.41-.547-.82-.957-.274-.273-.684-.684-.958-1.094-.41-.274-.684-.547-1.094-.82-.274-.274-.41-.411-.547-.411-1.505-.41-2.872-.137-3.966.82-1.095 1.095-2.052 2.462-3.01 4.104-.82 1.641-1.504 3.555-2.05 5.744-.548 2.188-.958 4.24-1.369 6.155-.41 1.914-.547 3.692-.82 5.197-.136 1.367-.136 2.325-.273 2.599-1.232.956-2.462 1.23-3.556.82-1.095-.41-2.19-1.231-3.146-2.462-1.094-1.23-1.915-2.735-2.735-4.513-.82-1.915-1.505-3.83-2.19-5.881-.683-2.052-1.23-4.24-1.777-6.292-.547-2.051-1.094-4.102-1.504-5.88 0-1.232.41-2.19 1.094-2.873.684-.547 1.641-.82 3.145-.82h.82c.138.82.275 1.778.549 2.872.136.957.546 2.05.956 3.282.41 1.095.82 2.188 1.368 3.009.547.957 1.23 1.778 2.051 2.325.137-1.778.548-3.556 1.369-5.197a17.017 17.017 0 0 1 3.145-4.377c1.231-1.367 2.599-2.461 4.103-3.419 1.505-.82 3.01-1.504 4.513-1.778h1.778c2.462 0 4.514.547 6.292 1.641a14.413 14.413 0 0 1 4.24 4.377c1.23 1.778 2.05 3.693 2.734 6.018.548 2.188 1.095 4.513 1.369 6.838.273 2.325.546 4.514.683 6.702v5.608zm49.92-32.278c-.41.547-1.367.82-2.735 1.094-.41.137-1.094.137-2.051.274-.958.137-2.051.273-3.146.41-1.231.137-2.462.137-3.83.274-1.367.137-2.598.273-3.692.41-1.231.136-2.326.136-3.282.136h-2.189v1.369c0 .683-.137.957-.137 1.23 0 2.189.41 4.377 1.095 6.565.683 2.051 1.504 4.24 2.324 6.291.82 2.189 1.641 4.24 2.326 6.292.82 2.188 1.094 4.377 1.094 6.564 0 .411 0 .821-.137 1.232 0 .41-.136.82-.41 1.23-.274.274-.547.548-.958.684-.41.274-1.094.137-1.778-.136-2.05-.41-3.419-1.505-4.376-3.283-.958-1.641-1.642-3.692-2.188-6.018a60.89 60.89 0 0 1-.82-7.385 61.061 61.061 0 0 0-.821-7.385 22.009 22.009 0 0 0-1.505-5.745c-.684-1.641-1.915-2.598-3.419-3.009l-14.908-3.282c-.137 0-.41-.274-.82-.684-.411-.41-.684-.82-.821-.957 0-.137-.137-.274-.137-.41v-.41-.412c0-.137.137-.272.137-.41l.957-.957.684-.684h15.455c0-.547 0-1.368-.274-2.598a207.819 207.819 0 0 1-.41-4.104 26.358 26.358 0 0 1 0-4.65c0-1.64.137-3.009.547-4.376.41-1.367 1.094-2.325 1.915-3.282.82-.821 2.05-1.232 3.556-1.232 0 5.198.273 9.3 1.094 12.447.684 3.145 1.64 5.47 2.872 7.248 1.231 1.641 2.599 2.735 4.103 3.282 1.504.548 3.01.685 4.65.685a26.955 26.955 0 0 0 4.787-.82c1.504-.412 2.872-.685 4.103-.821 1.23-.137 2.188 0 2.872.41.684.273 1.094 1.23 1.094 2.735 0 .957-.273 1.778-.82 2.188zM593.163 77h-292V6.838h292V77zM441.624 471.028c1.367 0 2.734-.136 3.966-.684 1.23-.41 2.461-1.094 3.419-2.05 1.094-.821 1.915-1.779 2.598-3.01a9.18 9.18 0 0 0 .82-3.829c0-.82 0-1.641-.136-2.463a6.035 6.035 0 0 0-.82-2.187 5.824 5.824 0 0 0-1.505-1.642c-.683-.546-1.504-.683-2.598-.683-1.505 0-2.873.273-4.103.957-1.232.684-2.326 1.641-3.283 2.735-.82 1.094-1.505 2.326-1.915 3.693-.41 1.368-.683 2.735-.683 4.103 0 1.778.273 3.146.683 3.967.547.82 1.642 1.093 3.557 1.093zM373.786 49.374c.274 1.914.547 3.966.958 6.018.274 2.05.547 4.24.82 6.564h.274c.136.137.273.137.41.137 0 0 .137 0 .274-.137h.273c.137-.137.274-.274.548-.41l.82-.821c.274-.273.547-.547.684-.82.274-.137.41-.41.547-.547v-.411c0-1.641-.136-3.282-.41-4.924-.411-1.64-.684-3.282-.958-4.923-.274-1.641-.683-3.282-.957-4.923a29.869 29.869 0 0 1-.41-4.924c0-1.094 0-2.052.136-3.01 0-.957 0-1.777.137-2.598.137-.957.274-1.778.41-2.735.137-.958.41-2.051.684-3.283.82.684 1.641 1.641 2.462 2.736l2.462 3.693c.957 1.367 1.778 2.735 2.735 4.103.82 1.367 1.778 2.598 2.736 3.692.957 1.094 1.915 2.052 2.872 2.735.957.684 2.051.958 3.146.958 1.504 0 2.735-.41 3.693-1.23.82-.821 1.64-1.779 2.187-3.147.547-1.23 1.095-2.735 1.368-4.24.41-1.64.82-3.145 1.231-4.65.41-1.504.958-2.872 1.641-4.239.684-1.231 1.504-2.189 2.736-2.872 1.367 1.64 2.598 3.693 3.556 5.88 1.093 2.325 1.914 4.651 2.462 7.113.683 2.461 1.23 4.786 1.64 7.248.41 2.326.821 4.514 1.231 6.429 0 .136.137.41.274.683.274.274.41.547.684.82.273.275.547.411.82.684.274.137.548.274.685.274.683.274 1.23.274 1.504 0 .41-.137.684-.41.82-.683.137-.411.273-.821.273-1.232 0-.41.137-.683.137-1.094 0-.82-.137-2.188-.41-4.103a51.402 51.402 0 0 0-1.368-6.565c-.546-2.324-1.093-4.923-1.914-7.522-.82-2.598-1.778-4.924-3.01-7.112a22.288 22.288 0 0 0-3.828-5.197c-1.505-1.367-3.01-2.051-4.788-2.051-1.504 0-2.735.41-3.556 1.23a11.956 11.956 0 0 0-2.05 3.42c-.548 1.367-.958 2.872-1.232 4.513-.273 1.641-.684 3.282-.957 4.787-.41 1.504-.821 2.872-1.368 3.966-.547 1.23-1.367 2.052-2.325 2.462-.957-.82-1.778-1.778-2.735-3.01-.82-1.23-1.778-2.598-2.736-3.965-.957-1.368-1.915-2.736-2.872-4.24a46.548 46.548 0 0 0-3.009-3.83c-1.094-1.23-2.187-2.188-3.419-2.871-1.094-.685-2.325-1.095-3.556-1.095-.683 0-1.094.274-1.504.684-.274.41-.684.957-.82 1.504-.274.548-.411 1.095-.548 1.641-.136.548-.273.958-.273 1.232 0 .41-.137 1.23-.137 2.324v9.164c0 2.325 0 4.513.274 6.565.136 2.051.41 4.103.546 6.155zm55.391 8.069c1.368 1.504 3.01 2.598 5.06 3.419 2.052.82 4.24 1.231 6.839 1.231h1.778c.82-.137 1.641-.137 2.599-.274.957 0 2.051-.274 3.009-.41 1.093-.136 2.051-.41 2.872-.82.82-.274 1.505-.685 2.051-1.231.547-.547.821-1.095.821-1.915 0-.41-.137-.684-.274-1.094-.137-.274-.41-.41-.82-.548-.273-.136-.547-.273-.958-.273-.41-.136-.684-.136-1.093-.136-.821 0-1.778.136-2.6.273-.684.136-1.504.273-2.325.547-.82.137-1.64.41-2.325.547-.82.137-1.64.274-2.598.274-.82 0-1.915-.137-3.009-.274-1.094 0-2.051-.274-3.146-.547-.957-.41-1.914-.957-2.598-1.641-.821-.684-1.094-1.641-1.23-2.735 2.187.41 4.239.272 6.154-.548a13.441 13.441 0 0 0 5.333-3.282c1.641-1.368 2.873-3.009 3.83-4.924.957-1.915 1.367-3.829 1.367-5.88 0-1.232-.137-2.462-.546-3.694-.411-1.093-.958-2.188-1.778-3.008-.684-.82-1.642-1.504-2.736-2.052-1.094-.547-2.325-.82-3.83-.82-2.598 0-4.786.546-6.564 1.64-1.779.958-3.283 2.325-4.377 4.103-1.094 1.642-1.914 3.556-2.462 5.745-.547 2.051-.684 4.24-.684 6.428 0 2.462.274 4.65 1.095 6.701.684 2.052 1.778 3.83 3.145 5.198zm2.462-19.011c.41-.957.957-1.914 1.641-2.735.685-.957 1.505-1.641 2.463-2.189.956-.41 1.914-.683 3.145-.683.82 0 1.504.136 1.915.41.547.41.957.82 1.23 1.368s.548 1.094.684 1.778c0 .546.137 1.23.137 1.778 0 1.094-.273 2.05-.684 3.008-.546.82-1.23 1.641-2.052 2.326-.683.684-1.64 1.23-2.598 1.504-.957.41-2.051.547-3.009.547-1.504 0-2.461-.274-2.735-.82-.41-.684-.684-1.642-.684-3.146 0-.958.274-2.052.547-3.146zm25.029-5.607c.137.136.273.41.683.683.274.274.548.548.684.548l11.352 2.598c1.231.273 2.189.957 2.735 2.188.547 1.232.958 2.736 1.232 4.514.273 1.778.41 3.692.547 5.744.136 1.915.273 3.83.683 5.607.41 1.778.958 3.42 1.641 4.65.684 1.368 1.778 2.188 3.283 2.6.684.136 1.094.273 1.505.136.273-.137.547-.41.683-.684l.41-.82v-.958c0-1.778-.273-3.419-.82-5.06-.547-1.641-1.094-3.283-1.778-4.924-.684-1.504-1.23-3.146-1.778-4.787a16.329 16.329 0 0 1-.821-5.06v-.958c.137-.546.137-.82.137-1.094h1.641c.684 0 1.505 0 2.462-.137.957-.136 1.915-.136 2.872-.273 1.095-.137 2.052-.137 2.873-.274.957 0 1.778-.137 2.461-.273.82 0 1.368-.137 1.642-.137 1.094-.273 1.778-.547 2.187-.82.274-.41.548-.958.548-1.778 0-1.095-.274-1.915-.82-2.189-.548-.274-1.369-.41-2.326-.274-.82.137-1.914.411-3.146.685-1.094.273-2.324.547-3.556.547-1.23.136-2.461-.137-3.692-.41-1.231-.411-2.189-1.368-3.146-2.599-.958-1.368-1.641-3.146-2.188-5.608-.548-2.325-.82-5.607-.82-9.574-1.232 0-2.19.411-2.736.958-.684.683-1.231 1.504-1.504 2.598-.274.958-.411 2.052-.548 3.283 0 1.23 0 2.461.137 3.556a93.94 93.94 0 0 0 .41 3.145c0 .958.138 1.642.138 2.052h-11.9c-.136 0-.273.274-.547.547-.41.274-.547.547-.82.684v.41s-.137.137-.137.274.137.274.137.274v.41zm39.663-3.009c1.093.273 2.461.547 4.103.547s3.419 0 5.197-.137c1.915-.274 3.692-.274 5.334-.274 1.641-.136 2.871 0 3.966.41 1.094.275 1.641.821 1.641 1.779v.274c-.137.136-.137.273-.274.41a136.996 136.996 0 0 0-4.923 6.564c-1.641 2.189-3.283 4.65-4.65 7.112-1.368 2.325-2.462 4.924-3.42 7.522-.82 2.599-1.367 5.335-1.367 8.207 1.915 0 3.966-.137 5.88-.41 1.916-.138 3.83-.41 5.882-.821 1.915-.274 3.83-.547 5.744-.958 1.915-.273 3.83-.547 5.744-.683.684-.137 1.095-.547 1.23-1.095.138-.41.138-.957.138-1.504 0-.82-.137-1.367-.41-1.778-.274-.41-1.094-.684-2.189-.684h-15.18c.41-1.231 1.23-2.461 2.051-3.693l2.872-3.692c1.094-1.368 2.188-2.599 3.282-3.83 1.094-1.367 2.052-2.598 2.872-3.829.82-1.368 1.505-2.599 2.052-3.967.547-1.23.82-2.598.82-3.829 0-.684 0-1.231-.136-1.64-.137-.412-.41-.821-.684-1.095-.274-.411-.684-.684-1.231-1.095-.41-.41-1.094-.82-1.778-1.23-.547 0-1.368 0-2.325-.137-1.094-.137-2.325-.137-3.556-.274-1.367 0-2.736-.137-4.24-.274-1.504 0-2.872-.136-4.24-.136-1.367-.137-2.598-.137-3.556-.273-1.094 0-1.915-.137-2.325-.137h-2.598c-.274.137-.547.137-.684.273a.752.752 0 0 0-.41.684c-.137.41-.137.82-.137 1.504 0 1.095.547 1.778 1.505 2.19zM112.15 246.866c.546 2.051 1.367 3.966 2.461 5.47 1.232 1.505 2.736 2.736 4.514 3.694 1.915.957 4.24 1.367 6.838 1.367 3.146 0 6.155-.684 9.164-2.051a26.505 26.505 0 0 0 8.206-5.608c2.462-2.188 4.513-4.923 6.018-7.796 1.504-3.008 2.325-6.018 2.325-9.163 0-1.504-.274-3.282-.82-5.197-.548-2.051-1.369-3.83-2.326-5.607-1.094-1.778-2.325-3.283-3.83-4.65-1.504-1.231-3.145-1.779-5.06-1.779-3.556 0-6.975.548-10.257 1.778-3.42 1.368-6.429 3.01-9.028 5.197-2.734 2.19-4.923 4.788-6.564 7.796a20.092 20.092 0 0 0-2.462 9.711c0 2.462.274 4.65.82 6.838zm7.522-9.027c.683-1.23 1.64-2.461 2.735-3.829 1.232-1.368 2.599-2.735 3.966-4.103 1.505-1.368 3.01-2.598 4.377-3.693 1.505-.957 3.01-1.915 4.377-2.598 1.368-.684 2.598-.958 3.556-.958 1.231 0 2.052.274 2.872.958.684.547 1.23 1.367 1.641 2.188.41.957.684 1.915.82 3.009.274 1.094.274 2.051.274 3.008 0 2.052-.41 4.103-1.504 6.292a23.44 23.44 0 0 1-3.966 5.881c-1.778 1.778-3.557 3.145-5.744 4.377-2.052 1.094-4.104 1.778-6.155 1.778-1.641 0-3.01-.274-3.967-.684-1.093-.41-2.051-1.094-2.599-1.778-.683-.82-1.093-1.778-1.367-2.872s-.41-2.462-.41-3.83c0-.82.41-1.914 1.094-3.146zm36.517-1.504c.547 2.599 1.23 5.06 2.051 7.659.958 2.599 2.052 4.787 3.42 6.838 1.368 1.915 3.009 3.556 4.923 4.787 1.915 1.231 4.104 1.778 6.565 1.778s4.65-.547 6.565-1.778c2.052-1.094 3.693-2.735 5.197-4.65s2.873-4.103 3.83-6.701c1.094-2.462 1.914-4.924 2.598-7.523.82-2.598 1.231-5.06 1.505-7.522.273-2.462.41-4.513.41-6.565 0-.683.137-1.64.137-2.872 0-1.23.137-2.462.137-3.83 0-1.367-.137-2.735-.274-4.102-.137-1.368-.41-2.599-.82-3.693-.41-1.094-1.095-1.915-1.779-2.736-.683-.683-1.64-.957-2.871-.957-.958 0-1.778.137-2.599.684-.684.41-1.094 1.094-1.094 2.188 0 1.23 0 2.462.273 3.556.137 1.23.41 2.325.684 3.557.273 1.093.547 2.324.684 3.555.274 1.231.41 2.462.41 3.83s-.136 3.008-.273 4.786-.548 3.693-.82 5.608c-.412 1.915-.958 3.966-1.642 5.881s-1.505 3.556-2.462 5.06c-1.094 1.642-2.188 2.873-3.556 3.83-1.504.957-3.01 1.368-4.787 1.368-1.504 0-2.872-.411-3.966-1.368-1.095-.821-2.052-2.052-3.009-3.42-.821-1.367-1.642-2.871-2.325-4.65-.547-1.777-1.094-3.555-1.505-5.333-.546-1.642-.82-3.42-1.094-4.924-.137-1.641-.273-3.01-.273-4.103 0-.274.136-.957.273-1.915.274-1.094.41-2.188.684-3.556.137-1.23.41-2.325.547-3.419.137-.957.274-1.641.41-1.915v-1.778c-.82-.957-1.504-1.504-2.188-1.777-.683-.137-1.367-.137-1.915.136-.683.274-1.23.82-1.778 1.368-.546.684-.957 1.367-1.367 2.051v1.641c-.137.82-.137 1.778-.137 2.736v4.513c0 1.778 0 3.83.274 6.292.137 2.462.547 4.923.957 7.385zm48.826-35.97c1.094-.274 1.778-.82 1.915-1.641 0-.82-.273-1.778-.958-2.736-.82-1.094-1.641-1.778-2.735-2.188-1.641 0-2.735.547-3.283 1.642-.546 1.094-.957 2.461-.957 3.966 2.872.957 4.787 1.368 6.018.957zm-2.735 16.96v1.64c-.137.82-.137 1.641-.137 2.462s0 1.641-.137 2.463v6.153c.137 2.052.137 4.24.274 6.566.136 2.325.41 4.786.82 7.248.41 2.462.958 4.65 1.642 6.702a13.82 13.82 0 0 0 2.461 4.924c1.095 1.367 2.462 1.914 4.103 1.914 2.599 0 3.83-1.23 3.83-3.692 0-3.01-.41-6.155-1.094-9.574-.684-3.42-1.504-6.838-2.325-10.258-.957-3.419-1.778-6.975-2.599-10.394s-1.23-6.702-1.368-9.711c-1.093.274-2.05.82-3.008 1.368-1.095.547-1.915 1.23-2.462 2.188zm21.336 15.59c1.64.821 3.419 1.505 5.333 1.779 2.052.41 4.104.547 6.292.547 2.188.137 4.24 0 6.428-.137 2.188-.136 4.103-.136 5.881-.136 1.094.683 1.504 1.504 1.504 2.461 0 1.094-.273 2.188-.957 3.283-.547 1.23-1.504 2.325-2.599 3.556-1.094 1.367-2.325 2.462-3.693 3.556-1.23 1.23-2.598 2.188-3.829 3.282-1.231.958-2.325 1.778-3.282 2.325 0 .957.273 1.778.547 2.599.41.82 1.231 1.23 2.324 1.23 1.232 0 2.6-.41 4.104-1.23 1.368-.82 2.872-1.778 4.24-3.146 1.504-1.231 2.872-2.598 4.24-4.24 1.23-1.641 2.461-3.146 3.419-4.787.957-1.641 1.778-3.145 2.325-4.513.683-1.368.957-2.6.957-3.556 0-2.052-.41-3.556-1.368-4.65-.82-1.095-2.051-1.915-3.42-2.325-1.503-.548-3.145-.684-5.06-.684-1.914 0-3.829.136-5.744.273l-5.744.411c-1.778 0-3.419 0-4.923-.41-1.505-.274-2.735-.821-3.556-1.642-.958-.957-1.368-2.188-1.368-4.103 0-2.325.41-4.376 1.368-5.88.82-1.505 2.051-2.6 3.282-3.557 1.368-.957 2.872-1.778 4.514-2.325 1.641-.547 3.145-1.094 4.65-1.505 1.504-.546 2.872-1.093 3.965-1.777 1.232-.684 1.915-1.642 2.326-2.872-.82-1.368-1.915-2.462-3.146-3.42-1.23-1.094-2.599-1.778-4.103-2.188-2.462 1.094-4.787 2.325-7.248 3.693-2.326 1.504-4.514 3.145-6.429 5.06s-3.556 4.103-4.65 6.429c-1.23 2.461-1.777 5.333-1.777 8.342 0 2.599.546 4.65 1.367 6.428a10.29 10.29 0 0 0 3.83 3.83zM282.7 452.019c-9.165-26.944-15.455-45.134-18.738-54.844-19.421-55.665-29.405-84.385-29.816-86.027l-2.325-8.206c-.41-1.367-.683-2.188-.683-2.599 0-2.598 2.188-3.966 6.427-4.103l18.602-.683c7.385-.137 11.078-1.368 11.078-3.283 0-1.915-1.915-2.872-5.471-2.872h-4.377c-12.582 0-22.293.137-29.132.547-6.838.274-10.804.41-11.761.41-3.83 0-10.395-.136-19.421-.41-.684 0-1.505 0-2.189-.137v-24.755c.137-3.145-.957-4.65-3.556-4.65-2.188 0-3.282 1.368-3.555 3.966-.548 10.395-2.19 18.737-5.06 25.166-1.916-.137-3.42-.137-4.651-.137h-2.736c-4.103 0-6.154.957-6.154 2.736 0 1.504.684 2.324 1.915 2.461 1.094.273 3.693.41 8.206.547-3.693 4.787-9.437 8.207-17.507 10.258-9.71 2.324-26.533 3.556-50.33 3.556-9.848 0-17.37 0-22.977-.274v-180.26c0-8.89.547-14.223 1.778-16.001 1.094-1.779 4.513-2.736 10.53-2.873 5.882-.273 9.438-.41 10.532-.82 1.095-.273 1.641-1.094 1.641-2.188 0-2.052-1.778-3.147-5.47-3.147h-3.42c-3.418 0-7.795.137-13.13.548-5.333.274-8.89.41-10.667.41-19.968 0-33.235-.273-40.073-.958h-2.736c-2.461 0-3.555.958-3.555 2.736 0 2.326 1.914 3.42 5.744 3.42 9.3 0 14.771.547 16.275 1.777 1.642 1.231 2.325 5.608 2.325 13.13v171.78c0 6.292-.683 10.121-2.325 11.352-1.504 1.368-6.154 2.188-13.813 2.599-5.471.41-8.206 1.367-8.206 2.735 0 1.915 1.641 2.735 5.06 2.735l126.92.958c5.881 0 11.215.273 15.866.683 4.65.411 7.522.548 8.752.548h3.42c.41-8.207.684-14.771.82-19.832.274.137.41.273.685.41 2.461 1.915 4.65 5.745 6.701 11.49l14.907 41.166c10.669 30.773 18.737 53.887 24.208 69.342 5.06 14.086 12.173 35.148 21.336 63.05 5.197 15.18 8.48 22.84 10.12 22.84 1.37 0 2.463-1.231 3.01-3.694 3.283-11.35 7.112-24.48 11.762-39.115v-25.165c-1.504 4.377-3.145 9.027-4.786 13.677z" fill="#2a2b25"/></svg>